<?xml version="1.0" encoding="UTF-8" standalone="no"?>
<!-- Created with Inkscape (http://www.inkscape.org/) -->

<svg
   width="105mm"
   height="74mm"
   viewBox="0 0 105 74"
   version="1.1"
   id="svg3883"
   inkscape:version="1.1.2 (b8e25be833, 2022-02-05)"
   sodipodi:docname="EscRo_Logo.svg"
   xmlns:inkscape="http://www.inkscape.org/namespaces/inkscape"
   xmlns:sodipodi="http://sodipodi.sourceforge.net/DTD/sodipodi-0.dtd"
   xmlns="http://www.w3.org/2000/svg"
   xmlns:svg="http://www.w3.org/2000/svg">
  <sodipodi:namedview
     id="namedview3885"
     pagecolor="#ffffff"
     bordercolor="#666666"
     borderopacity="1.0"
     inkscape:pageshadow="2"
     inkscape:pageopacity="0.0"
     inkscape:pagecheckerboard="0"
     inkscape:document-units="mm"
     showgrid="false"
     inkscape:zoom="1.4805976"
     inkscape:cx="154.32957"
     inkscape:cy="203.29628"
     inkscape:window-width="1920"
     inkscape:window-height="1017"
     inkscape:window-x="-8"
     inkscape:window-y="-8"
     inkscape:window-maximized="1"
     inkscape:current-layer="layer1" />
  <defs
     id="defs3880">
    <rect
       x="2154.8501"
       y="101.24738"
       width="700.58228"
       height="264.37762"
       id="rect59350-6-9-5-3-2-4-3" />
    <rect
       x="2154.8501"
       y="101.24738"
       width="700.58228"
       height="264.37762"
       id="rect59350-6-9-5-8-9-0-8-6" />
    <rect
       x="2154.8501"
       y="101.24738"
       width="700.58228"
       height="264.37762"
       id="rect59350-6-9-5-3-2-4-3-9" />
    <rect
       x="2154.8501"
       y="101.24738"
       width="700.58228"
       height="264.37762"
       id="rect59350-6-9-5-8-9-0-8-6-0" />
  </defs>
  <g
     inkscape:label="Ebene 1"
     inkscape:groupmode="layer"
     id="layer1">
    <g
       id="g193465"
       transform="matrix(0.08174284,0.11660637,-0.11660637,0.08174284,-15.055769,-394.4923)"
       style="display:inline">
      <text
         xml:space="preserve"
         id="text59348-1-3-3-1-6-6-7"
         style="font-style:normal;font-weight:normal;font-size:100px;line-height:1.25;font-family:sans-serif;text-align:justify;white-space:pre;shape-inside:url(#rect59350-6-9-5-3-2-4-3-9);fill:#000000;fill-opacity:1;stroke:none"
         transform="matrix(0.42458798,-0.60567581,0.60567581,0.42458798,1684.8374,2707.5956)"
         inkscape:transform-center-x="-9.4139325"
         inkscape:transform-center-y="5.6484044"><tspan
           x="2154.8496"
           y="189.72461"
           id="tspan4465"><tspan
             style="font-weight:bold;-inkscape-font-specification:'sans-serif Bold'"
             id="tspan4463">ISCOVERY</tspan></tspan></text>
      <text
         xml:space="preserve"
         id="text59348-1-3-3-8-2-6-7-4"
         style="font-style:normal;font-weight:normal;font-size:15.3056px;line-height:1.25;font-family:sans-serif;text-align:justify;white-space:pre;shape-inside:url(#rect59350-6-9-5-8-9-0-8-6-0);fill:#000000;fill-opacity:1;stroke:none"
         transform="matrix(0.42458798,-0.60567581,0.60567581,0.42458798,1807.7284,2656.5299)"
         inkscape:transform-center-x="-9.4139325"
         inkscape:transform-center-y="5.6484044"><tspan
           x="2154.8496"
           y="114.78992"
           id="tspan4467">EINBLICKE IN DIE WISSENSCHAFTLICHE REVOLUTION</tspan></text>
      <g
         id="g193149-0-3"
         transform="rotate(-46.958209,2830.6036,1200.6474)">
        <path
           style="fill:#000000;fill-opacity:1;stroke:#000000;stroke-width:1px;stroke-linecap:butt;stroke-linejoin:miter;stroke-opacity:1"
           d="m 2397.7564,1247.9706 c -2.2685,-14.805 -2.8655,-29.6101 5.8504,-36.2962 8.7159,-6.6862 19.5809,-10.6262 44.6539,4.4176 25.0731,15.0438 41.4303,37.3708 41.4303,37.3708 l 8.1189,-4.7758 c 0,0 -26.0283,-29.1325 -43.5794,-40.1169 -17.5511,-10.9844 -35.2217,-15.402 -45.1315,-11.3426 -9.9098,4.0595 -19.939,17.4318 -11.3426,50.7431 z"
           id="path133956-4-7-4-2-2-2" />
        <path
           style="fill:#000000;fill-opacity:1;stroke:#000000;stroke-width:1px;stroke-linecap:butt;stroke-linejoin:miter;stroke-opacity:1"
           d="m 2489.3328,1368.3213 c 17.0735,8.3576 29.9683,7.4025 37.6096,-1.4328 7.6413,-8.8353 7.5219,-32.4756 -2.5073,-56.7128 -10.0293,-24.2373 -14.3275,-27.8192 -14.3275,-27.8192 l 6.9249,-5.9698 c 0,0 19.1033,31.5204 23.7597,58.0262 4.6565,26.5058 -4.8952,39.9975 -18.2675,42.863 -13.3723,2.8655 -31.0428,-7.6413 -33.1919,-8.9546 z"
           id="path133958-0-6-3-9-6-9" />
        <path
           style="fill:none;stroke:#000000;stroke-width:1px;stroke-linecap:butt;stroke-linejoin:miter;stroke-opacity:1"
           d="m 2390.8437,1310.1145 c -4.2213,25.8341 -0.8138,40.962 12.1488,48.6989 12.993,7.7551 47.2782,-8.7802 63.1502,-25.8342 15.8719,-17.0539 23.3098,-27.9303 27.3622,-33.6712 4.0524,-5.7409 9.9622,-14.8588 9.9622,-14.8588 l -8.2737,-2.8705 c 0,0 -20.5998,35.6275 -49.8109,56.565 -29.2112,20.9375 -44.7455,12.3261 -49.9798,4.0524 -5.2344,-8.2737 -5.9098,-19.0801 -4.559,-32.0816 z"
           id="path133960-9-0-1-1-5-3"
           sodipodi:nodetypes="csssccssc" />
        <path
           style="fill:none;stroke:#000000;stroke-width:1px;stroke-linecap:butt;stroke-linejoin:miter;stroke-opacity:1"
           d="m 2476.2822,1184.6584 c 17.8981,-9.9622 31.9127,-7.2606 37.316,0.1688 5.4032,7.4295 12.1572,18.9113 1.6885,52.6814 -10.4688,33.7702 -9.2868,28.5358 -9.2868,28.5358 l 7.2606,3.5459 c 0,0 14.0416,-37.181 16.0697,-59.8396 1.8863,-21.0739 -6.5178,-30.8274 -14.7148,-33.5314 -13.0965,-4.3201 -30.3973,3.0358 -38.3332,8.4391 z"
           id="path133962-4-2-8-3-5-6"
           sodipodi:nodetypes="cssccssc" />
        <path
           style="fill:none;stroke:#000000;stroke-width:1px;stroke-linecap:butt;stroke-linejoin:miter;stroke-opacity:1"
           d="m 2447.3551,1233.5587 c -10.5049,-3.8831 -30.7921,-8.3446 -30.9235,14.7506 -0.1225,21.531 16.0689,47.8971 16.0689,47.8971 l -5.134,4.0594 c 0,0 -15.3521,-24.3931 -17.5511,-44.7733 -2.1901,-20.2972 8.9333,-27.4429 16.4766,-28.0579 7.353,-0.5995 15.6877,3.2791 21.0631,6.1241 z"
           id="path134742-9-5-7-4-0-1"
           sodipodi:nodetypes="csccssc" />
        <path
           style="fill:none;stroke:#000000;stroke-width:1px;stroke-linecap:butt;stroke-linejoin:miter;stroke-opacity:1"
           d="m 2514.1891,1321.6807 c 3.7148,22.7104 -3.2081,31.8284 -19.9243,29.7178 -16.7163,-2.1107 -34.53,-20.6843 -37.9915,-23.9769 -3.4614,-3.2925 -12.2416,-13.9301 -12.2416,-13.9301 l -4.7279,3.968 c 0,0 18.3129,21.6258 34.1923,32.5881 16.6318,11.4819 32.4874,10.6145 38.4135,3.2927 5.3861,-6.6547 4.4746,-21.4441 2.2795,-31.6596 z"
           id="path135750-5-2-0-7-7-1"
           sodipodi:nodetypes="cssccssc" />
        <circle
           style="fill:#000000;fill-opacity:1;stroke:#ffffff;stroke-width:6.04724;stroke-linecap:round;stroke-linejoin:round;stroke-miterlimit:4;stroke-dasharray:none;stroke-opacity:1"
           id="path136237-9-1-8-4-0-1"
           cx="2436.8157"
           cy="1306.9639"
           r="13.177423" />
        <circle
           style="fill:#ffffff;fill-opacity:1;stroke:none;stroke-width:4.19705;stroke-linecap:round;stroke-linejoin:round;stroke-miterlimit:4;stroke-dasharray:none;stroke-opacity:1"
           id="path136237-9-1-5-8-3-7-3"
           cx="2436.7913"
           cy="1306.9805"
           r="9.1457024" />
        <circle
           style="fill:#000000;fill-opacity:1;stroke:#ffffff;stroke-width:10.0157;stroke-linecap:round;stroke-linejoin:round;stroke-miterlimit:4;stroke-dasharray:none;stroke-opacity:1"
           id="path136237-0-6-1-8-4-6-9"
           cx="2503.3616"
           cy="1266.656"
           r="17.562571" />
        <path
           style="fill:none;stroke:#000000;stroke-width:1px;stroke-linecap:butt;stroke-linejoin:miter;stroke-opacity:1"
           d="m 2424.5468,1295.6408 c 3.0342,-2.962 5.3835,-3.8864 5.3835,-3.8864"
           id="path136683-3-1-4-7-1" />
        <path
           style="fill:none;stroke:#000000;stroke-width:1px;stroke-linecap:butt;stroke-linejoin:miter;stroke-opacity:1"
           d="m 2443.4679,1322.3051 c 3.1826,-1.5114 5.1118,-3.4866 5.1118,-3.4866"
           id="path136685-0-8-0-7-8" />
        <path
           style="fill:none;stroke:#000000;stroke-width:1px;stroke-linecap:butt;stroke-linejoin:miter;stroke-opacity:1"
           d="m 2492.0678,1286.7552 c 3.552,2.0297 8.2084,2.7759 8.2084,2.7759"
           id="path136687-7-3-3-3-9" />
        <path
           style="fill:none;stroke:#000000;stroke-width:1px;stroke-linecap:butt;stroke-linejoin:miter;stroke-opacity:1"
           d="m 2512.8088,1245.6018 c 3.4839,1.6279 6.5245,4.3918 7.094,4.9716"
           id="path136689-8-0-1-3-1" />
        <path
           style="fill:#ffffff;fill-opacity:1;stroke:#ffffff;stroke-width:1px;stroke-linecap:butt;stroke-linejoin:miter;stroke-opacity:1"
           d="m 2454.4738,1332.2952 -1.5318,-1.4971 2.8416,-2.4566 1.5147,1.4699 1.6602,-1.5322 5.3906,5.1336 -1.5707,1.5632 1.6018,1.3584 -2.998,2.5946 -1.4637,-1.3918 -1.4939,1.2927 -5.5448,-5.2244 z"
           id="path170671-4-0-4-4-6"
           sodipodi:nodetypes="ccccccccccccc" />
      </g>
    </g>
  </g>
</svg>
