<svg width="540" height="296" viewBox="0 0 540 296" fill="none" xmlns="http://www.w3.org/2000/svg">
<path fill-rule="evenodd" clip-rule="evenodd" d="M296 0H0V296H296V200H277V277H19V19H277V93H296V0Z" fill="black"/>
<path d="M131.414 199.717H36V93H131.267V111.642H54.4956V181.074H131.414V199.717ZM127.304 153.331H68.1472V137.624H127.304V153.331Z" fill="black"/>
<path d="M227.384 199.717H147.383V181.074H227.384C237.366 181.074 242.944 175.496 242.944 167.129C242.944 158.028 237.366 153.331 227.384 153.331H178.356C158.246 153.331 145.768 140.56 145.768 122.945C145.768 105.771 157.365 93 178.65 93H255.274V111.642H178.65C170.136 111.642 165.145 116.633 165.145 124.707C165.145 132.78 170.283 137.624 178.503 137.624H227.384C248.962 137.624 260.559 147.753 260.559 168.45C260.559 186.359 249.696 199.717 227.384 199.717Z" fill="black"/>
<path d="M410.374 199.717H314.96V93H410.227V111.642H333.455V181.074H410.374V199.717ZM406.263 153.331H347.107V137.624H406.263V153.331Z" fill="black"/>
<path d="M539.518 199.717H475.077C445.279 199.717 423.26 176.23 423.26 145.257C423.26 113.844 445.279 93 475.077 93H539.518V111.642H475.077C455.995 111.642 441.903 125.881 441.903 146.138C441.903 166.249 455.848 181.074 475.077 181.074H520.729V153.331H472.582V137.624H539.518V199.717Z" fill="black"/>
<rect x="277" y="116" width="19" height="19" fill="black"/>
<rect x="277" y="158" width="19" height="19" fill="black"/>
</svg>
